<svg width="851" height="598" viewBox="0 0 851 598" fill="none" xmlns="http://www.w3.org/2000/svg">
<circle cx="425" cy="319" r="279" fill="#FF8964"/>
<circle cx="425" cy="319" r="249" fill="#272727"/>
<path d="M310.883 190.323C312.94 189.847 314.743 190.093 316.291 191.06C317.813 191.913 318.732 193.025 319.049 194.397C319.366 195.769 319.208 196.649 318.575 197.036C307.142 199.676 299.273 206.01 294.965 216.037C290.658 226.063 290.339 239.022 294.01 254.913C297.654 270.689 304.173 283.273 313.568 292.664C322.936 301.94 333.736 305.166 345.968 302.34C358.201 299.515 366.585 291.497 371.12 278.287C375.77 265.05 376.075 249.686 372.035 232.194C367.968 214.589 360.314 201.003 349.073 191.436C337.92 181.729 325.484 178.46 311.765 181.629C298.046 184.798 287.239 191.449 279.343 201.581C271.536 211.574 268.658 222.053 270.709 233.019C270.463 234.039 269.482 234.747 267.768 235.144C264.742 235.601 262.807 234.001 261.962 230.343C261.117 226.685 261.002 222.797 261.617 218.681C262.205 214.451 263.708 210.01 266.126 205.357C268.544 200.704 271.625 196.319 275.371 192.203C279.09 187.972 284.041 184.119 290.222 180.644C296.404 177.169 303.325 174.547 310.985 172.778C329.391 168.526 345.613 171.764 359.651 182.49C373.777 193.076 383.177 208.487 387.851 228.722C392.525 248.957 391.213 266.48 383.917 281.292C376.708 295.962 364.587 305.265 347.553 309.2C330.633 313.108 315.897 310.31 303.346 300.805C290.908 291.274 282.379 276.506 277.758 256.499C275.593 247.125 275.138 238.378 276.394 230.261C277.764 222.117 280.362 215.375 284.186 210.036C291.923 199.218 300.822 192.646 310.883 190.323ZM446.856 206.965C446.064 203.535 446.441 200.738 447.989 198.574C449.51 196.296 451.642 194.84 454.386 194.207C457.13 193.573 459.487 193.871 461.457 195.102L472.825 244.319C474.33 250.835 476.494 255.513 479.318 258.353C482.141 261.193 485.325 262.204 488.869 261.386C492.413 260.567 495.368 257.717 497.732 252.836C500.484 247.022 500.328 237.484 497.265 224.223C497.221 223.51 497.999 222.969 499.6 222.6C501.658 222.124 503.386 224.916 504.786 230.975C507.03 240.693 506.711 248.955 503.828 255.763C501.059 262.544 495.902 266.806 488.356 268.549C476.352 271.321 467.21 267.713 460.928 257.724C458.978 269.614 452.058 276.933 440.169 279.679C433.081 281.316 426.876 280.521 421.555 277.295C416.207 273.954 412.609 268.282 410.761 260.28L400.898 217.58C400.106 214.15 400.369 211.38 401.688 209.269C402.98 207.044 404.941 205.627 407.571 205.02C410.2 204.413 412.5 204.724 414.47 205.955L425.838 255.171C428.98 268.776 433.981 274.786 440.84 273.202C445.985 272.013 449.902 267.857 452.592 260.733C455.396 253.583 455.504 244.405 452.916 233.202L446.856 206.965ZM515.517 231.026L521.815 258.292C521.041 260.156 519.225 261.419 516.367 262.079C513.509 262.739 511.025 262.41 508.914 261.091C506.776 259.658 505.312 257.226 504.519 253.797L489.468 188.632C490.241 186.768 492.057 185.505 494.915 184.845C497.773 184.185 500.271 184.572 502.408 186.005C504.519 187.323 505.971 189.698 506.763 193.127L509.773 206.16C512.215 190.664 518.466 181.754 528.527 179.43C535.729 177.767 541.437 178.495 545.65 181.617C549.837 184.623 552.538 188.756 553.752 194.015C554.413 196.873 554.083 199.358 552.764 201.469C551.446 203.58 549.986 204.82 548.386 205.19C545.413 205.876 543.311 205.639 542.08 204.479C542.37 202.605 542.145 200.068 541.405 196.867C540.666 193.666 538.907 191.002 536.127 188.874C533.348 186.746 530.415 186.039 527.328 186.752C521.955 187.993 518.231 194.031 516.158 204.866C514.173 215.561 513.959 224.281 515.517 231.026Z" fill="#5DFFFF"/>
<g filter="url(#filter0_f_3_63)">
<path d="M310.883 190.323C312.94 189.847 314.743 190.093 316.291 191.06C317.813 191.913 318.732 193.025 319.049 194.397C319.366 195.769 319.208 196.649 318.575 197.036C307.142 199.676 299.273 206.01 294.965 216.037C290.658 226.063 290.339 239.022 294.01 254.913C297.654 270.689 304.173 283.273 313.568 292.664C322.936 301.94 333.736 305.166 345.968 302.34C358.201 299.515 366.585 291.497 371.12 278.287C375.77 265.05 376.075 249.686 372.035 232.194C367.968 214.589 360.314 201.003 349.073 191.436C337.92 181.729 325.484 178.46 311.765 181.629C298.046 184.798 287.239 191.449 279.343 201.581C271.536 211.574 268.658 222.053 270.709 233.019C270.463 234.039 269.482 234.747 267.768 235.144C264.742 235.601 262.807 234.001 261.962 230.343C261.117 226.685 261.002 222.797 261.617 218.681C262.205 214.451 263.708 210.01 266.126 205.357C268.544 200.704 271.625 196.319 275.371 192.203C279.09 187.972 284.041 184.119 290.222 180.644C296.404 177.169 303.325 174.547 310.985 172.778C329.391 168.526 345.613 171.764 359.651 182.49C373.777 193.076 383.177 208.487 387.851 228.722C392.525 248.957 391.213 266.48 383.917 281.292C376.708 295.962 364.587 305.265 347.553 309.2C330.633 313.108 315.897 310.31 303.346 300.805C290.908 291.274 282.379 276.506 277.758 256.499C275.593 247.125 275.138 238.378 276.394 230.261C277.764 222.117 280.362 215.375 284.186 210.036C291.923 199.218 300.822 192.646 310.883 190.323ZM446.856 206.965C446.064 203.535 446.441 200.738 447.989 198.574C449.51 196.296 451.642 194.84 454.386 194.207C457.13 193.573 459.487 193.871 461.457 195.102L472.825 244.319C474.33 250.835 476.494 255.513 479.318 258.353C482.141 261.193 485.325 262.204 488.869 261.386C492.413 260.567 495.368 257.717 497.732 252.836C500.484 247.022 500.328 237.484 497.265 224.223C497.221 223.51 497.999 222.969 499.6 222.6C501.658 222.124 503.386 224.916 504.786 230.975C507.03 240.693 506.711 248.955 503.828 255.763C501.059 262.544 495.902 266.806 488.356 268.549C476.352 271.321 467.21 267.713 460.928 257.724C458.978 269.614 452.058 276.933 440.169 279.679C433.081 281.316 426.876 280.521 421.555 277.295C416.207 273.954 412.609 268.282 410.761 260.28L400.898 217.58C400.106 214.15 400.369 211.38 401.688 209.269C402.98 207.044 404.941 205.627 407.571 205.02C410.2 204.413 412.5 204.724 414.47 205.955L425.838 255.171C428.98 268.776 433.981 274.786 440.84 273.202C445.985 272.013 449.902 267.857 452.592 260.733C455.396 253.583 455.504 244.405 452.916 233.202L446.856 206.965ZM515.517 231.026L521.815 258.292C521.041 260.156 519.225 261.419 516.367 262.079C513.509 262.739 511.025 262.41 508.914 261.091C506.776 259.658 505.312 257.226 504.519 253.797L489.468 188.632C490.241 186.768 492.057 185.505 494.915 184.845C497.773 184.185 500.271 184.572 502.408 186.005C504.519 187.323 505.971 189.698 506.763 193.127L509.773 206.16C512.215 190.664 518.466 181.754 528.527 179.43C535.729 177.767 541.437 178.495 545.65 181.617C549.837 184.623 552.538 188.756 553.752 194.015C554.413 196.873 554.083 199.358 552.764 201.469C551.446 203.58 549.986 204.82 548.386 205.19C545.413 205.876 543.311 205.639 542.08 204.479C542.37 202.605 542.145 200.068 541.405 196.867C540.666 193.666 538.907 191.002 536.127 188.874C533.348 186.746 530.415 186.039 527.328 186.752C521.955 187.993 518.231 194.031 516.158 204.866C514.173 215.561 513.959 224.281 515.517 231.026Z" fill="#5DFFFF"/>
</g>
<path d="M407.154 439.554C407.567 438.736 408.46 438.169 409.832 437.852C411.318 437.509 412.637 437.746 413.79 438.564C414.942 439.381 415.848 441.219 416.508 444.077C417.168 446.935 417.081 450.989 416.247 456.24C415.5 461.35 413.852 466.728 411.303 472.374C408.727 477.907 404.538 482.969 398.734 487.561C393.045 492.126 386.199 495.333 378.197 497.182C359.676 501.459 343.441 498.947 329.491 489.645C315.515 480.229 305.978 464.489 300.882 442.425C295.759 420.246 297.176 402.397 305.132 388.878C313.177 375.219 325.773 366.409 342.922 362.448C354.011 359.886 363.36 360.738 370.968 365.002C378.576 369.265 383.185 374.884 384.796 381.858C385.456 384.716 385.127 387.2 383.808 389.311C382.489 391.422 380.973 392.676 379.258 393.072C376.057 393.811 373.726 393.627 372.266 392.519C372.556 390.646 372.41 388.452 371.829 385.937C370.403 379.763 367.267 375.309 362.421 372.575C357.689 369.815 351.55 369.306 344.005 371.049C332.687 373.663 324.281 381.325 318.787 394.034C313.381 406.602 312.737 421.803 316.857 439.638C320.976 457.472 328.705 470.861 340.043 479.802C351.354 488.63 363.183 491.618 375.53 488.766C387.877 485.914 396.908 479.914 402.622 470.767C408.311 461.505 409.821 451.101 407.154 439.554ZM457.074 426.398C459.132 425.923 460.86 428.715 462.26 434.774C464.293 443.577 463.635 451.677 460.286 459.074C456.937 466.47 451.546 471.027 444.115 472.743C434.855 474.882 427.305 473.736 421.464 469.305C415.624 464.874 411.542 457.628 409.218 447.567L394.325 383.089C390.919 368.341 389.967 357.181 391.469 349.609C392.972 342.036 397.61 337.352 405.384 335.557C416.702 332.943 424.13 339.295 427.668 354.614C430.335 366.161 430.188 375.949 427.226 383.979C424.378 391.983 420.435 398.373 415.396 403.149L426.012 449.107C427.517 455.624 429.91 460.249 433.191 462.984C436.472 465.718 440.284 466.584 444.628 465.58C448.973 464.577 452.424 461.01 454.982 454.88C457.54 448.749 457.459 439.797 454.739 428.021C454.809 427.283 455.588 426.742 457.074 426.398ZM420.334 356.489C417.799 345.514 413.788 340.66 408.3 341.928C406.928 342.245 405.948 342.953 405.359 344.052C404.884 345.125 404.784 347.557 405.057 351.347C405.322 357.187 408.214 372.053 413.733 395.947C422.015 386.447 424.216 373.295 420.334 356.489ZM494.582 389.917C493.79 386.487 494.167 383.691 495.715 381.527C497.236 379.249 499.368 377.793 502.112 377.159C504.856 376.525 507.213 376.824 509.183 378.055L520.551 427.271C522.056 433.787 524.22 438.466 527.044 441.306C529.868 444.146 533.051 445.157 536.595 444.338C540.139 443.519 543.094 440.669 545.459 435.788C548.21 429.974 548.054 420.437 544.991 407.175C544.947 406.463 545.725 405.922 547.326 405.552C549.384 405.077 551.112 407.869 552.512 413.928C554.756 423.645 554.437 431.908 551.554 438.715C548.785 445.496 543.628 449.758 536.082 451.501C524.078 454.274 514.936 450.666 508.654 440.676C506.704 452.567 499.785 459.885 487.895 462.631C480.807 464.269 474.602 463.474 469.281 460.247C463.933 456.906 460.335 451.235 458.487 443.232L448.624 400.532C447.832 397.103 448.095 394.332 449.414 392.221C450.706 389.996 452.667 388.58 455.297 387.972C457.926 387.365 460.226 387.677 462.196 388.908L473.564 438.124C476.706 451.728 481.707 457.738 488.566 456.154C493.711 454.966 497.628 450.81 500.318 443.686C503.122 436.535 503.23 427.358 500.642 416.154L494.582 389.917ZM547.611 416.686L532.401 350.835C528.969 335.973 527.915 324.897 529.242 317.606C530.542 310.201 535.251 305.561 543.368 303.686C547.712 302.682 551.507 303.733 554.753 306.836C557.998 309.94 560.4 314.865 561.958 321.61C564.784 333.842 561.317 347.769 551.558 363.39L553.658 372.479C556.831 366.929 561.676 363.401 568.193 361.896C578.139 359.599 587.092 361.083 595.052 366.35C603.012 371.616 608.418 380.423 611.27 392.77C614.122 405.116 613.266 415.49 608.704 423.889C604.115 432.175 596.904 437.453 587.072 439.724C577.355 441.968 568.877 440.976 561.638 436.747C554.399 432.519 549.724 425.831 547.611 416.686ZM594.979 396.532C592.233 384.643 589.061 376.645 585.463 372.538C581.839 368.318 576.826 366.947 570.423 368.426C564.021 369.904 560.082 372.922 558.605 377.477C557.129 382.033 557.513 389.17 559.757 398.887L561.817 407.805C564.194 418.094 567.225 425.221 570.91 429.187C574.71 433.126 579.697 434.383 585.87 432.957C592.044 431.531 595.763 428.083 597.029 422.612C598.408 417.115 597.725 408.422 594.979 396.532ZM545.084 310.334C542.797 310.862 541.852 313.549 542.249 318.395C542.619 323.126 544.508 332.866 547.914 347.613L549.657 355.159C555.107 343.303 556.737 332.63 554.545 323.141C552.353 313.653 549.199 309.383 545.084 310.334Z" fill="#5DFFFF"/>
<g filter="url(#filter1_f_3_63)">
<path d="M406.62 442.403C407.033 441.585 407.925 441.017 409.297 440.701C410.783 440.357 412.103 440.594 413.255 441.412C414.407 442.23 415.313 444.068 415.973 446.926C416.634 449.784 416.546 453.838 415.712 459.089C414.966 464.198 413.318 469.577 410.768 475.223C408.193 480.755 404.003 485.817 398.2 490.409C392.51 494.975 385.665 498.182 377.662 500.03C359.141 504.308 342.906 501.796 328.956 492.494C314.98 483.078 305.444 467.338 300.347 445.273C295.225 423.094 296.641 405.246 304.598 391.727C312.642 378.068 325.238 369.257 342.387 365.296C353.476 362.735 362.825 363.586 370.433 367.85C378.041 372.114 382.651 377.733 384.261 384.706C384.922 387.565 384.592 390.049 383.274 392.16C381.955 394.271 380.438 395.524 378.723 395.921C375.522 396.66 373.191 396.476 371.731 395.368C372.021 393.495 371.876 391.3 371.295 388.785C369.869 382.612 366.733 378.158 361.886 375.424C357.154 372.663 351.016 372.154 343.47 373.897C332.152 376.511 323.746 384.173 318.252 396.882C312.846 409.451 312.203 424.652 316.322 442.487C320.441 460.321 328.17 473.709 339.508 482.651C350.819 491.478 362.649 494.466 374.995 491.614C387.342 488.762 396.373 482.763 402.088 473.615C407.776 464.354 409.287 453.949 406.62 442.403ZM456.539 429.247C458.597 428.772 460.326 431.563 461.725 437.623C463.758 446.426 463.1 454.525 459.751 461.922C456.402 469.319 451.012 473.876 443.581 475.592C434.321 477.731 426.77 476.585 420.93 472.154C415.089 467.722 411.007 460.476 408.684 450.416L393.791 385.938C390.384 371.19 389.432 360.03 390.935 352.457C392.437 344.885 397.075 340.201 404.849 338.405C416.167 335.791 423.595 342.144 427.134 357.463C429.801 369.01 429.653 378.798 426.691 386.828C423.843 394.832 419.9 401.222 414.862 405.998L425.477 451.956C426.982 458.472 429.375 463.098 432.656 465.832C435.937 468.567 439.749 469.432 444.094 468.429C448.438 467.425 451.889 463.859 454.447 457.728C457.005 451.598 456.924 442.645 454.204 430.87C454.275 430.131 455.053 429.59 456.539 429.247ZM419.799 359.338C417.264 348.363 413.253 343.509 407.766 344.776C406.394 345.093 405.413 345.802 404.824 346.901C404.35 347.974 404.249 350.406 404.522 354.196C404.787 360.036 407.679 374.902 413.198 398.796C421.481 389.296 423.681 376.143 419.799 359.338ZM494.047 392.766C493.255 389.336 493.633 386.539 495.18 384.376C496.701 382.097 498.834 380.642 501.577 380.008C504.321 379.374 506.678 379.673 508.648 380.903L520.016 430.12C521.521 436.636 523.686 441.314 526.509 444.154C529.333 446.995 532.517 448.005 536.061 447.187C539.605 446.368 542.559 443.518 544.924 438.637C547.675 432.823 547.52 423.285 544.457 410.024C544.412 409.311 545.191 408.77 546.791 408.401C548.849 407.925 550.578 410.717 551.977 416.777C554.222 426.494 553.902 434.757 551.019 441.564C548.25 448.345 543.093 452.607 535.548 454.35C523.544 457.123 514.401 453.514 508.12 443.525C506.17 455.415 499.25 462.734 487.36 465.48C480.272 467.117 474.068 466.323 468.746 463.096C463.399 459.755 459.8 454.083 457.952 446.081L448.089 403.381C447.297 399.951 447.561 397.181 448.879 395.07C450.172 392.845 452.133 391.428 454.762 390.821C457.391 390.214 459.691 390.526 461.661 391.756L473.029 440.973C476.172 454.577 481.172 460.587 488.032 459.003C493.176 457.814 497.093 453.658 499.783 446.534C502.587 439.384 502.695 430.207 500.108 419.003L494.047 392.766ZM547.077 419.534L531.867 353.684C528.434 338.822 527.381 327.745 528.707 320.454C530.007 313.049 534.716 308.409 542.833 306.534C547.177 305.531 550.972 306.581 554.218 309.685C557.464 312.789 559.866 317.713 561.424 324.458C564.249 336.691 560.782 350.618 551.024 366.239L553.123 375.327C556.297 369.777 561.142 366.25 567.658 364.745C577.604 362.447 586.557 363.932 594.517 369.198C602.477 374.465 607.883 383.271 610.735 395.618C613.587 407.965 612.732 418.338 608.169 426.738C603.58 435.023 596.369 440.301 586.538 442.572C576.82 444.817 568.342 443.825 561.103 439.596C553.865 435.367 549.189 428.68 547.077 419.534ZM594.444 399.381C591.698 387.491 588.526 379.493 584.928 375.387C581.304 371.166 576.291 369.795 569.889 371.274C563.487 372.753 559.547 375.77 558.071 380.326C556.594 384.882 556.978 392.019 559.223 401.736L561.282 410.653C563.659 420.942 566.69 428.07 570.376 432.035C574.176 435.975 579.162 437.231 585.336 435.805C591.509 434.379 595.229 430.931 596.494 425.461C597.874 419.964 597.19 411.271 594.444 399.381ZM544.549 313.183C542.263 313.711 541.318 316.398 541.715 321.243C542.085 325.975 543.973 335.714 547.38 350.462L549.122 358.007C554.573 346.151 556.202 335.479 554.01 325.99C551.818 316.501 548.665 312.232 544.549 313.183Z" fill="#5DFFFF"/>
</g>
<defs>
<filter id="filter0_f_3_63" x="209.822" y="78.6196" width="400.744" height="287.354" filterUnits="userSpaceOnUse" color-interpolation-filters="sRGB">
<feFlood flood-opacity="0" result="BackgroundImageFix"/>
<feBlend mode="normal" in="SourceGraphic" in2="BackgroundImageFix" result="shape"/>
<feGaussianBlur stdDeviation="21" result="effect1_foregroundBlur_3_63"/>
</filter>
<filter id="filter1_f_3_63" x="240.206" y="254.157" width="423.619" height="302.053" filterUnits="userSpaceOnUse" color-interpolation-filters="sRGB">
<feFlood flood-opacity="0" result="BackgroundImageFix"/>
<feBlend mode="normal" in="SourceGraphic" in2="BackgroundImageFix" result="shape"/>
<feGaussianBlur stdDeviation="21" result="effect1_foregroundBlur_3_63"/>
</filter>
</defs>
</svg>
